<svg width="27" height="27" viewBox="0 0 27 27" fill="none" xmlns="http://www.w3.org/2000/svg">
<g clip-path="url(#clip0_670_2166)">
<path d="M13.4999 27.0002C6.044 27.0002 -0.000200272 20.956 -0.000200272 13.5001C-0.000200272 6.0442 6.044 0 13.4999 0C20.9558 0 27 6.0442 27 13.5001C27 20.956 20.9558 27.0002 13.4999 27.0002Z" fill="#34E0A1"/>
<path d="M5.16217 10.866L3.53303 9.09364H7.14569C8.95425 7.85817 11.1385 7.13867 13.5005 7.13867C15.8596 7.13867 18.0377 7.85979 19.8433 9.09364H23.4648L21.8359 10.866C22.8345 11.777 23.4604 13.0894 23.4604 14.5465C23.4604 17.2962 21.231 19.5256 18.4812 19.5256C17.1749 19.5256 15.985 19.0218 15.0966 18.1982L13.5007 19.9359L11.9047 18.1998C11.0163 19.0234 9.82765 19.5256 8.5215 19.5256C5.7717 19.5256 3.5393 17.2962 3.5393 14.5465C3.53789 13.0878 4.16383 11.7756 5.16237 10.866H5.16217ZM18.4798 17.9161C20.3412 17.9161 21.8495 16.4079 21.8495 14.5465C21.8495 12.685 20.341 11.1768 18.4798 11.1768C16.6184 11.1768 15.1102 12.6852 15.1102 14.5465C15.1102 16.4077 16.6186 17.9161 18.4798 17.9161ZM13.499 14.4484C13.499 12.231 15.1116 10.3275 17.2399 9.51444C16.0889 9.03329 14.8264 8.7664 13.5005 8.7664C12.1747 8.7664 10.9106 9.03329 9.75961 9.51444C11.8863 10.3291 13.4988 12.231 13.4988 14.4484H13.499ZM8.51988 17.9161C10.3813 17.9161 11.8895 16.4079 11.8895 14.5465C11.8895 12.685 10.3811 11.1768 8.51988 11.1768C6.65847 11.1768 5.15022 12.6852 5.15022 14.5465C5.15022 16.4077 6.65867 17.9161 8.51988 17.9161ZM8.51988 12.7786C9.49595 12.7786 10.2863 13.569 10.2863 14.545C10.2863 15.5209 9.49595 16.3113 8.51988 16.3113C7.54401 16.3113 6.75364 15.5209 6.75364 14.545C6.75364 13.5706 7.54401 12.7786 8.51988 12.7786ZM16.7134 14.5465C16.7134 15.5223 17.5037 16.3127 18.4798 16.3127C19.4557 16.3127 20.2461 15.5223 20.2461 14.5465C20.2461 13.5704 19.4557 12.78 18.4798 12.78C17.504 12.7786 16.7134 13.5704 16.7134 14.5465Z" fill="black"/>
</g>
<defs>
<clipPath id="clip0_670_2166">
<rect width="27" height="27" fill="white" transform="matrix(-1 0 0 1 27 0)"/>
</clipPath>
</defs>
</svg>
